<svg width="20px" height="24px" viewBox="0 0 14 11" version="1.1" xmlns="http://www.w3.org/2000/svg" xmlns:xlink="http://www.w3.org/1999/xlink">
                        <g id="Footer" stroke="none" stroke-width="1" fill="none" fill-rule="evenodd">
                            <g id="12-Lifestyle–Gillette-Labs-D" transform="translate(-666.000000, -651.000000)" fill="#808080">
                                <g id="social-Icons" transform="translate(643.000000, 651.000000)">
                                    <path d="M27.3293056,11 C32.4060772,11 35.1819815,6.76713987 35.1819815,3.0987322 C35.1819815,2.97772962 35.1819815,2.85672703 35.1760062,2.74173699 C35.7167573,2.34747501 36.1838233,1.8599406 36.5555556,1.30173103 C36.051389,1.52532404 35.5171952,1.67284219 34.9702315,1.7395199 C35.5473714,1.39282932 35.9788441,0.84601783 36.1835926,0.201809985 C35.6416397,0.524072256 35.0494667,0.751872638 34.4320802,0.875591479 C33.910654,0.314802509 33.1808581,-0.00240599386 32.4176543,0 C30.8941627,0.00042849824 29.659174,1.24294639 29.6585556,2.77593337 C29.6585556,2.9950157 29.6817099,3.20808547 29.7332469,3.40950593 C27.4379815,3.29451589 25.4063765,2.1885823 24.0440062,0.506946947 C23.8004954,0.930597553 23.6722024,1.41132485 23.6720432,1.90073142 C23.6705345,2.82972778 24.1328193,3.69737894 24.9025833,4.21030257 C24.4650405,4.19809493 24.0369395,4.07947544 23.6548642,3.86458088 L23.6548642,3.89915305 C23.6548642,5.24671604 24.6049383,6.36429895 25.869463,6.62321443 C25.6327525,6.68823386 25.3884609,6.72109335 25.1430895,6.72091838 C24.9653241,6.72091838 24.7939074,6.7036323 24.6221173,6.66906013 C24.9810286,7.80106271 26.0168134,8.57715101 27.1974753,8.59871321 C26.2189811,9.36933467 25.011708,9.78710333 23.769142,9.78506468 C23.5461883,9.78506468 23.328463,9.77379114 23.1111111,9.74447996 C24.3656672,10.567389 25.8317365,11.0037472 27.3293056,11 L27.3293056,11 Z" id="Twitter"></path>
                                </g>
                            </g>
                        </g>
                    </svg>