<svg width="20px" height="24px" viewBox="0 0 12 11" version="1.1" xmlns="http://www.w3.org/2000/svg" xmlns:xlink="http://www.w3.org/1999/xlink">
                        <g id="Footer" stroke="none" stroke-width="1" fill="none" fill-rule="evenodd">
                            <g id="12-Lifestyle–Gillette-Labs-D" transform="translate(-724.000000, -651.000000)" fill="#808080" fill-rule="nonzero">
                                <g id="social-Icons" transform="translate(643.000000, 651.000000)">
                                    <path d="M87.0555556,0 C84.0181806,0 81.5555556,2.46216667 81.5555556,5.5 C81.5555556,7.83016667 83.0052639,9.82025 85.0512639,10.6214167 C85.0031389,10.1864583 84.9595972,9.519125 85.0705139,9.04429167 C85.1704306,8.61483333 85.7153889,6.31033333 85.7153889,6.31033333 C85.7153889,6.31033333 85.5508472,5.98079167 85.5508472,5.49358333 C85.5508472,4.72908333 85.9940556,4.158 86.5458889,4.158 C87.0147639,4.158 87.2416389,4.51045833 87.2416389,4.93258333 C87.2416389,5.40420833 86.9414306,6.10958333 86.7860556,6.763625 C86.6563472,7.310875 87.0605972,7.75775 87.6005139,7.75775 C88.5781389,7.75775 89.3293472,6.72695833 89.3293472,5.23920833 C89.3293472,3.92241667 88.3833472,3.001625 87.0321806,3.001625 C85.4674306,3.001625 84.5489306,4.17541667 84.5489306,5.38816667 C84.5489306,5.86070833 84.7308889,6.36808333 84.9582222,6.64308333 C85.0031389,6.697625 85.0095556,6.74575 84.9962639,6.80120833 L84.8436389,7.42454167 C84.8193472,7.525375 84.7638889,7.54691667 84.6593889,7.49833333 C83.9723472,7.17841667 83.5428889,6.17420833 83.5428889,5.36754167 C83.5428889,3.63275 84.8033056,2.039125 87.1770139,2.039125 C89.0850556,2.039125 90.5677639,3.399 90.5677639,5.21583333 C90.5677639,7.1115 89.3728889,8.63683333 87.7137222,8.63683333 C87.1563889,8.63683333 86.6325139,8.347625 86.4533056,8.00525 L86.1104722,9.312875 C85.9862639,9.79091667 85.6512222,10.3899583 85.4266389,10.7547917 C85.9418056,10.9138333 86.4885972,11 87.0555556,11 C90.0929306,11 92.5555556,8.537375 92.5555556,5.5 C92.5555556,2.46216667 90.0929306,0 87.0555556,0 L87.0555556,0 Z" id="Pinterest"></path>
                                </g>
                            </g>
                        </g>
                    </svg>