<svg width="24px" height="24px" viewBox="0 0 17 11" version="1.1" xmlns="http://www.w3.org/2000/svg" xmlns:xlink="http://www.w3.org/1999/xlink">
                        <g id="Footer" stroke="none" stroke-width="1" fill="none" fill-rule="evenodd">
                            <g id="12-Lifestyle–Gillette-Labs-D" transform="translate(-752.000000, -651.000000)" fill="#808080">
                                <g id="social-Icons" transform="translate(643.000000, 651.000000)">
                                    <path d="M123.552183,0.328253968 C122.326905,0 117.412698,0 117.412698,0 C117.412698,0 112.498492,0 111.273214,0.328253968 C110.595489,0.510552786 110.066108,1.0399338 109.88381,1.71765873 C109.555556,2.94293651 109.555556,5.5 109.555556,5.5 C109.555556,5.5 109.555556,8.05706349 109.88381,9.28234127 C110.066108,9.9600662 110.595489,10.4894472 111.273214,10.671746 C112.498929,11 117.412698,11 117.412698,11 C117.412698,11 122.326905,11 123.552183,10.671746 C124.229954,10.4895276 124.759369,9.96011266 124.941587,9.28234127 C125.269841,8.05706349 125.269841,5.5 125.269841,5.5 C125.269841,5.5 125.269841,2.94293651 124.941587,1.71765873 C124.759369,1.03988734 124.229954,0.510472405 123.552183,0.328253968 Z M115.84127,7.85714286 L115.84127,3.14285714 L119.769841,5.5 L115.84127,7.85714286 L115.84127,7.85714286 Z" id="Youtube"></path>
                                </g>
                            </g>
                        </g>
                    </svg>