<svg width="20px" height="24px" viewBox="0 0 12 11" version="1.1" xmlns="http://www.w3.org/2000/svg" xmlns:xlink="http://www.w3.org/1999/xlink">
                        <g id="Footer" stroke="none" stroke-width="1" fill="none" fill-rule="evenodd">
                            <g id="12-Lifestyle–Gillette-Labs-D" transform="translate(-696.000000, -651.000000)" fill="#808080">
                                <g id="social-Icons" transform="translate(643.000000, 651.000000)">
                                    <path d="M59.0555556,0 C57.5617556,0 57.3744413,0.00628571429 56.7879841,0.033 C56.2024698,0.0597142857 55.8026984,0.152742857 55.4528984,0.288828571 C55.0858818,0.426877053 54.7533925,0.643316875 54.4786127,0.923057143 C54.1988646,1.19783052 53.9824235,1.53032169 53.8443841,1.89734286 C53.7082984,2.24714286 53.6152698,2.64691429 53.5885556,3.23242857 C53.5618413,3.81857143 53.5555556,4.0062 53.5555556,5.5 C53.5555556,6.9938 53.5618413,7.18111429 53.5885556,7.76757143 C53.6152698,8.35308571 53.7082984,8.75285714 53.8443841,9.10265714 C53.9824235,9.46967831 54.1988646,9.80216948 54.4786127,10.0769429 C54.7533861,10.356691 55.0858772,10.573132 55.4528984,10.7111714 C55.8026984,10.8472571 56.2024698,10.9402857 56.7879841,10.967 C57.3744413,10.9937143 57.5617556,11 59.0555556,11 C60.5493556,11 60.7366698,10.9937143 61.323127,10.967 C61.9086413,10.9402857 62.3084127,10.8472571 62.6582127,10.7111714 C63.0252339,10.573132 63.357725,10.356691 63.6324984,10.0769429 C63.9122465,9.80216948 64.1286876,9.46967831 64.266727,9.10265714 C64.4028127,8.75285714 64.4958413,8.35308571 64.5225556,7.76757143 C64.5492698,7.18111429 64.5555556,6.9938 64.5555556,5.5 C64.5555556,4.0062 64.5492698,3.81888571 64.5225556,3.23242857 C64.4958413,2.64691429 64.4028127,2.24714286 64.266727,1.89734286 C64.1286876,1.53032169 63.9122465,1.19783052 63.6324984,0.923057143 C63.3577122,0.643324731 63.0252247,0.426886109 62.6582127,0.288828571 C62.3084127,0.152742857 61.9086413,0.0597142857 61.323127,0.033 C60.7369841,0.00628571429 60.5493556,0 59.0555556,0 Z M59.0555556,0.990942857 C60.5242127,0.990942857 60.6980127,0.9966 61.2781841,1.023 C61.8143556,1.04751429 62.1053841,1.13708571 62.2992984,1.21251429 C62.5560698,1.31214286 62.7392984,1.43125714 62.9316413,1.62391429 C63.1144004,1.80128711 63.2550859,2.01736282 63.3433556,2.25625714 C63.4184698,2.45017143 63.5080413,2.7412 63.5325556,3.27768571 C63.5589556,3.85754286 63.5646127,4.03134286 63.5646127,5.5 C63.5646127,6.96865714 63.5589556,7.14245714 63.5325556,7.72262857 C63.5080413,8.2588 63.4184698,8.54982857 63.3430413,8.74374286 C63.2548728,8.98261259 63.1142951,9.19868783 62.9316413,9.37608571 C62.7542753,9.55885316 62.5381976,9.69953994 62.2992984,9.7878 C62.1053841,9.86291429 61.8143556,9.95248571 61.2778698,9.977 C60.698327,10.0034 60.5242127,10.0090571 59.0555556,10.0090571 C57.5868984,10.0090571 57.4130984,10.0034 56.832927,9.977 C56.2967556,9.95248571 56.005727,9.86291429 55.8118127,9.78748571 C55.572943,9.69931729 55.3568677,9.55873951 55.1794698,9.37608571 C54.9966941,9.19872653 54.856006,8.98264682 54.7677556,8.74374286 C54.6926413,8.54982857 54.6030698,8.2588 54.5785556,7.72231429 C54.5521556,7.14245714 54.5464984,6.96865714 54.5464984,5.5 C54.5464984,4.03134286 54.5521556,3.85754286 54.5785556,3.27737143 C54.6030698,2.7412 54.6926413,2.45017143 54.7680698,2.25625714 C54.8676984,1.99948571 54.9868127,1.81625714 55.1794698,1.62391429 C55.3568427,1.44115512 55.5729184,1.30046965 55.8118127,1.2122 C56.005727,1.13708571 56.2967556,1.04751429 56.8332413,1.023 C57.4130984,0.9966 57.5868984,0.990942857 59.0555556,0.990942857 L59.0555556,0.990942857 Z M59.0555556,2.67551429 C57.4956352,2.67551429 56.2310698,3.94007961 56.2310698,5.5 C56.2310698,7.05992039 57.4956352,8.32448571 59.0555556,8.32448571 C60.6154759,8.32448571 61.8800413,7.05992039 61.8800413,5.5 C61.8800413,3.94007961 60.6154759,2.67551429 59.0555556,2.67551429 Z M59.0555556,7.33322857 C58.0430914,7.33322857 57.222327,6.51246418 57.222327,5.5 C57.222327,4.48753582 58.0430914,3.66677143 59.0555556,3.66677143 C60.0680197,3.66677143 60.8887841,4.48753583 60.8887841,5.5 C60.8887841,6.51246417 60.0680197,7.33322857 59.0555556,7.33322857 L59.0555556,7.33322857 Z M62.6516127,2.56394286 C62.6516127,2.92845079 62.3561206,3.22394286 61.9916127,3.22394286 C61.6271048,3.22394286 61.3316127,2.92845079 61.3316127,2.56394286 C61.3316127,2.19943492 61.6271048,1.90394286 61.9916127,1.90394286 C62.3561206,1.90394286 62.6516127,2.19943492 62.6516127,2.56394286 Z" id="Instagram"></path>
                                </g>
                            </g>
                        </g>
                    </svg>