<svg width="17px" height="16px" viewBox="0 0 12 11" version="1.1" xmlns="http://www.w3.org/2000/svg" xmlns:xlink="http://www.w3.org/1999/xlink">
                        <g id="Footer" stroke="none" stroke-width="1" fill="none" fill-rule="evenodd">
                            <g id="12-Lifestyle–Gillette-Labs-D" transform="translate(-785.000000, -651.000000)" fill="#808080">
                                <g id="social-Icons" transform="translate(643.000000, 651.000000)">
                                    <path d="M144.905895,11 L144.905895,3.57855093 L142.416473,3.57855093 L142.416473,11 L144.905895,11 Z M153.880952,6.74414156 C153.880952,4.46464012 152.652829,3.40396341 151.01533,3.40396341 C149.694981,3.40396341 149.103478,4.12401363 148.772063,4.62936394 L148.772063,3.57855093 L146.283305,3.57855093 C146.316479,4.27492826 146.283305,11 146.283305,11 L148.772063,11 L148.772063,6.8552726 C148.772063,6.63333931 148.788319,6.41173482 148.854005,6.25325801 C149.033811,5.81004902 149.443517,5.35105811 150.131227,5.35105811 C151.031254,5.35105811 151.391862,6.03198231 151.391862,7.02920253 L151.391862,11 L153.880952,11 L153.880952,6.74414156 Z M143.678103,0 C142.826179,0 142.269841,0.554997609 142.269841,1.28228121 C142.269841,1.99444046 142.80926,2.56456241 143.644929,2.56456241 L143.661184,2.56456241 C144.529032,2.56456241 145.069446,1.99444046 145.069446,1.28228121 C145.053522,0.555983979 144.53069,0.00164395026 143.678103,0 Z" id="Linkedin"></path>
                                </g>
                            </g>
                        </g>
                    </svg>